# xmcd CD database file
#
# Track frame offsets:
#	150
#	22767
#	42815
#	61887
#	84470
#	104525
#	134845
#
# Disc length: 4440 seconds
#
# Revision: 0
# Processed by: cddbd v1.5.1PL0 Copyright (c) Steve Scherf et al.
# Submitted via: CDex 1.51
#
DISCID=55115607
DTITLE=倖田來未 - 奇跡
DYEAR=2004
DGENRE=JPop
TTITLE0=奇跡
TTITLE1=LOVE HOLIC
TTITLE2=life
TTITLE3=奇跡 (instrumental)
TTITLE4=LOVE HOLIC (instrumental)
TTITLE5=life (instrumental)
TTITLE6=CCCD
EXTD=YEAR: 2004
EXTT0=
EXTT1=
EXTT2=
EXTT3=
EXTT4=
EXTT5=
EXTT6=
PLAYORDER=
